<?xml version="1.0" standalone="no"?>
<!DOCTYPE svg PUBLIC "-//W3C//DTD SVG 20010904//EN"
 "http://www.w3.org/TR/2001/REC-SVG-20010904/DTD/svg10.dtd">
<svg version="1.0" xmlns="http://www.w3.org/2000/svg"
 width="192.000000pt" height="140.000000pt" viewBox="0 0 192.000000 140.000000"
 preserveAspectRatio="xMidYMid meet">

<g transform="translate(0.000000,140.000000) scale(0.100000,-0.100000)"
fill="#000000" stroke="none">
<path d="M555 1330 c-110 -5 -126 -9 -188 -39 -76 -38 -160 -114 -207 -187
-119 -188 -83 -446 82 -600 102 -93 209 -134 354 -134 l82 0 35 83 36 82 -119
7 c-143 8 -216 35 -279 103 -49 54 -66 85 -80 156 -26 127 42 263 163 327 l51
27 348 3 347 3 0 35 c0 34 1 35 34 29 26 -5 35 -3 40 11 10 26 -16 49 -42 35
-25 -13 -32 -6 -32 36 l0 33 -252 -2 c-139 -1 -307 -4 -373 -8z"/>
<path d="M1200 1311 c0 -14 5 -18 20 -14 24 6 60 -22 60 -48 0 -25 -27 -49
-56 -49 -17 0 -24 -6 -24 -19 0 -18 10 -19 133 -23 155 -4 200 -19 271 -93 62
-64 89 -138 84 -231 -8 -120 -71 -209 -186 -262 -50 -23 -68 -25 -262 -30
l-209 -5 -76 -174 c-42 -96 -92 -211 -111 -256 l-35 -81 167 172 166 172 127
0 c69 0 157 5 195 10 144 21 284 127 353 267 34 70 37 81 41 186 3 94 0 121
-17 171 -27 77 -70 143 -129 198 -106 99 -192 128 -384 128 -119 0 -128 -1
-128 -19z"/>
<path d="M362 894 c-25 -17 -31 -71 -10 -92 21 -21 75 -15 92 10 21 30 20 54
-4 78 -24 24 -48 25 -78 4z"/>
<path d="M586 891 c-25 -28 -17 -72 17 -91 24 -13 30 -13 55 0 33 19 42 69 17
94 -22 22 -68 20 -89 -3z"/>
<path d="M822 898 c-22 -28 -22 -55 -1 -81 25 -32 61 -35 89 -7 24 24 25 48 4
78 -17 25 -74 31 -92 10z"/>
<path d="M1056 894 c-25 -24 -20 -71 9 -90 29 -19 60 -11 81 20 36 56 -43 117
-90 70z"/>
<path d="M1287 892 c-24 -26 -21 -68 5 -86 31 -22 45 -20 73 9 30 29 31 49 5
75 -25 25 -62 26 -83 2z"/>
<path d="M1517 892 c-42 -46 4 -118 59 -94 13 7 29 23 36 36 25 56 -54 104
-95 58z"/>
</g>
</svg>
