<svg xmlns="http://www.w3.org/2000/svg" version="1.0" width="192.000000pt" height="140.000000pt" viewBox="0 0 192.000000 140.000000" preserveAspectRatio="xMidYMid meet">
<metadata fill="#ffffff">
Created by potrace 1.15, written by Peter Selinger 2001-2017
</metadata>
<g transform="translate(0.000000,140.000000) scale(0.100000,-0.100000)" fill="#ffffff" stroke="none">
<path d="M549 1331 c-106 -6 -122 -9 -185 -41 -77 -39 -157 -112 -203 -186 -120 -189 -85 -446 82 -600 101 -93 208 -134 353 -134 l82 0 35 83 36 82 -119 7 c-99 5 -129 11 -180 34 -235 105 -246 423 -19 549 l54 30 348 3 347 3 0 35 c0 34 1 35 34 29 26 -5 35 -3 40 11 10 26 -16 49 -42 35 -25 -13 -32 -6 -32 36 l0 33 -257 -2 c-142 -1 -310 -4 -374 -7z" fill="#ffffff"/>
<path d="M1200 1316 c0 -22 4 -26 30 -26 41 0 58 -32 35 -67 -12 -18 -23 -24 -41 -20 -20 3 -24 0 -24 -18 0 -22 3 -23 128 -27 149 -5 204 -24 270 -91 62 -63 87 -126 86 -217 0 -45 -7 -90 -16 -112 -22 -49 -91 -123 -147 -156 -44 -25 -52 -26 -265 -34 -121 -4 -223 -11 -227 -15 -10 -11 -220 -496 -216 -500 2 -1 77 72 168 164 l164 166 175 7 c141 6 185 11 228 28 270 105 394 401 274 656 -40 84 -99 156 -167 201 -87 57 -158 76 -317 82 l-138 6 0 -27z" fill="#ffffff"/>
<path d="M1055 895 c-30 -29 -31 -45 -4 -79 25 -31 61 -34 89 -6 28 28 25 64 -6 89 -34 27 -50 26 -79 -4z" fill="#ffffff"/>
<path d="M1302 910 c-12 -5 -27 -22 -33 -37 -22 -58 56 -108 100 -64 29 29 27 65 -5 90 -30 23 -30 23 -62 11z" fill="#ffffff"/>
<path d="M1530 907 c-18 -9 -26 -22 -28 -46 -6 -62 55 -94 98 -51 28 28 25 64 -6 89 -31 24 -31 25 -64 8z" fill="#ffffff"/>
<path d="M362 894 c-26 -18 -30 -75 -7 -94 37 -31 105 0 105 47 0 27 -33 63 -58 63 -10 0 -28 -7 -40 -16z" fill="#ffffff"/>
<path d="M586 891 c-25 -28 -17 -72 17 -91 24 -13 30 -13 55 0 33 19 42 69 17 94 -22 22 -68 20 -89 -3z" fill="#ffffff"/>
<path d="M822 898 c-22 -28 -22 -55 -1 -81 25 -32 61 -35 89 -7 24 24 25 48 4 78 -17 25 -74 31 -92 10z" fill="#ffffff"/>
</g>
</svg>